<?xml version="1.0" encoding="iso-8859-1"?>
<!-- Generator: Adobe Illustrator 19.0.0, SVG Export Plug-In . SVG Version: 6.00 Build 0)  -->
<svg version="1.1" id="Layer_1" xmlns="http://www.w3.org/2000/svg" xmlns:xlink="http://www.w3.org/1999/xlink" x="0px" y="0px"
	 viewBox="0 0 512 512" style="enable-background:new 0 0 512 512;" xml:space="preserve">
<g>
	<g>
		<path d="M484.596,381.266l-73.164-125.335l73.164-125.425c1.889-3.237,1.899-7.407,0.036-10.654
			c-1.863-3.247-5.325-5.427-9.067-5.427h-146.47L265.031,4.78c-3.747-6.432-14.315-6.343-18.062,0.089L112.674,234.956
			l-58.034-99.62h75.894c5.774,0,10.455-4.676,10.455-10.456c0-5.779-4.681-10.455-10.455-10.455H36.435
			c-3.742,0-7.204,2.18-9.067,5.427c-1.863,3.247-1.853,7.328,0.036,10.565l73.165,125.468L27.404,381.332
			c-1.889,3.237-1.899,7.063-0.036,10.31c1.863,3.247,5.325,5.08,9.067,5.08h146.471l64.063,110.002
			C248.842,509.94,252.283,512,256,512c3.716,0,7.158-1.927,9.031-5.143l134.296-230.375l58.032,99.329H371.01
			c-5.774,0-10.455,4.676-10.455,10.456c0,5.779,4.681,10.455,10.455,10.455h104.555c3.742,0,7.203-1.823,9.067-5.07
			C486.495,388.406,486.485,384.503,484.596,381.266z M54.64,375.811l58.034-99.488l58.033,99.488H54.64z M256,480.708
			l-48.886-83.986h69.797c5.774,0,10.456-4.676,10.456-10.455c0-5.779-4.681-10.456-10.456-10.456h-81.995l-70.138-120.059
			L256,30.707l48.887,83.718h-69.798c-5.774,0-10.455,4.677-10.455,10.456s4.681,10.455,10.455,10.455h81.996l70.137,120.327
			L256,480.708z M341.293,135.335h116.067l-58.032,99.488L341.293,135.335z"/>
	</g>
</g>
<g>
</g>
<g>
</g>
<g>
</g>
<g>
</g>
<g>
</g>
<g>
</g>
<g>
</g>
<g>
</g>
<g>
</g>
<g>
</g>
<g>
</g>
<g>
</g>
<g>
</g>
<g>
</g>
<g>
</g>
</svg>
